<svg width="100%" viewBox="0 0 680 350" xmlns="http://www.w3.org/2000/svg">
  <defs>
    <linearGradient id="g1" x1="0%" y1="0%" x2="100%" y2="100%">
      <stop offset="0%" stop-color="#6366F1"/>
      <stop offset="100%" stop-color="#EC4899"/>
    </linearGradient>
    <linearGradient id="g2" x1="0%" y1="0%" x2="100%" y2="0%">
      <stop offset="0%" stop-color="#00F5A0"/>
      <stop offset="100%" stop-color="#00D9F5"/>
    </linearGradient>
    <linearGradient id="g3" x1="0%" y1="0%" x2="100%" y2="100%">
      <stop offset="0%" stop-color="#8B5CF6"/>
      <stop offset="100%" stop-color="#6366F1"/>
    </linearGradient>
  <mask id="imagine-text-gaps-lvaos0" maskUnits="userSpaceOnUse"><rect x="0" y="0" width="680" height="350" fill="white"/><rect x="313.6617431640625" y="73.73502349853516" width="54.87363052368164" height="80.95670318603516" fill="black" rx="2"/><rect x="313.6617431640625" y="73.73502349853516" width="54.87363052368164" height="80.95670318603516" fill="black" rx="2"/><rect x="263.0550537109375" y="219.41494750976562" width="153.88980102539062" height="36.881500244140625" fill="black" rx="2"/><rect x="246.0349578857422" y="249.41494750976562" width="187.93002319335938" height="36.881500244140625" fill="black" rx="2"/><rect x="225.7190399169922" y="284.90509033203125" width="228.56185913085938" height="15.193702697753906" fill="black" rx="2"/></mask></defs>

  <polygon points="340,30 420,75 420,165 340,210 260,165 260,75" fill="none" stroke="url(#g1)" stroke-width="1.5" opacity="0.5"/>
  <polygon points="340,18 432,68 432,178 340,228 248,178 248,68" fill="none" stroke="url(#g1)" stroke-width="0.8" opacity="0.25"/>

  <polygon points="340,46 408,84 408,160 340,198 272,160 272,84" fill="none"/>
  <polygon points="340,46 408,84 408,160 340,198 272,160 272,84" fill="none" stroke="url(#g1)" stroke-width="1.5"/>

  <text x="340" y="138" text-anchor="middle" font-family="Georgia, 'Times New Roman', serif" font-size="68" font-weight="700" fill="url(#g1)" letter-spacing="-3">P</text>
  <text x="340" y="138" text-anchor="middle" font-family="Georgia, 'Times New Roman', serif" font-size="68" font-weight="700" fill="none" stroke="url(#g1)" stroke-width="0.5" opacity="0.4" letter-spacing="-3">P</text>

  <line x1="272" y1="122" x2="310" y2="122" stroke="url(#g2)" stroke-width="1.5" stroke-linecap="round"/>
  <line x1="370" y1="122" x2="408" y2="122" stroke="url(#g2)" stroke-width="1.5" stroke-linecap="round"/>

  <text x="340" y="248" text-anchor="middle" font-family="'Trebuchet MS', Arial, sans-serif" font-size="28" font-weight="700" fill="url(#g1)" letter-spacing="6">PALLAVI</text>
  <text x="340" y="278" text-anchor="middle" font-family="'Trebuchet MS', Arial, sans-serif" font-size="28" font-weight="700" fill="url(#g1)" letter-spacing="4">GONEPALLI</text>

  <line x1="240" y1="292" x2="304" y2="292" stroke="rgba(255,255,255,0.1)" stroke-width="1" mask="url(#imagine-text-gaps-lvaos0)"/>
  <text x="340" y="296" text-anchor="middle" font-family="Arial, sans-serif" font-size="10" fill="#6B7280" letter-spacing="3">UI  &amp;  FULL STACK  DEVELOPER</text>
  <line x1="376" y1="292" x2="440" y2="292" stroke="rgba(255,255,255,0.1)" stroke-width="1" mask="url(#imagine-text-gaps-lvaos0)"/>

  <circle cx="80" cy="170" r="2" fill="#6366F1" opacity="0.5"/>
  <circle cx="96" cy="155" r="1.5" fill="#8B5CF6" opacity="0.4"/>
  <circle cx="70" cy="158" r="1" fill="#EC4899" opacity="0.3"/>
  <circle cx="600" cy="170" r="2" fill="#00F5A0" opacity="0.5"/>
  <circle cx="614" cy="155" r="1.5" fill="#00D9F5" opacity="0.4"/>
  <circle cx="608" cy="185" r="1" fill="#6366F1" opacity="0.3"/>
</svg>
