<svg width="680" height="340" viewBox="0 0 680 340" xmlns="http://www.w3.org/2000/svg">
  <defs>
    <linearGradient id="g1" x1="0%" y1="0%" x2="100%" y2="100%">
      <stop offset="0%" stop-color="#6366F1"/>
      <stop offset="100%" stop-color="#EC4899"/>
    </linearGradient>
    <linearGradient id="g2" x1="0%" y1="0%" x2="100%" y2="0%">
      <stop offset="0%" stop-color="#00F5A0"/>
      <stop offset="100%" stop-color="#00D9F5"/>
    </linearGradient>
  </defs>


  <polygon points="340,30 420,75 420,165 340,210 260,165 260,75" fill="none" stroke="url(#g1)" stroke-width="1.5" opacity="0.25"/>
  <polygon points="340,18 432,68 432,178 340,228 248,178 248,68" fill="none" stroke="url(#g1)" stroke-width="0.8" opacity="0.12"/>

  <polygon points="340,46 408,84 408,160 340,198 272,160 272,84" fill="#111827"/>
  <polygon points="340,46 408,84 408,160 340,198 272,160 272,84" fill="none" stroke="url(#g1)" stroke-width="1.5"/>

  <text x="340" y="138" text-anchor="middle" font-family="Georgia,'Times New Roman',serif" font-size="68" font-weight="700" fill="url(#g1)" letter-spacing="-3">P</text>

  <line x1="272" y1="122" x2="310" y2="122" stroke="url(#g2)" stroke-width="1.5" stroke-linecap="round"/>
  <line x1="370" y1="122" x2="408" y2="122" stroke="url(#g2)" stroke-width="1.5" stroke-linecap="round"/>

  <text x="340" y="248" text-anchor="middle" font-family="'Trebuchet MS',Arial,sans-serif" font-size="28" font-weight="700" fill="white" letter-spacing="6">PALLAVI</text>
  <text x="340" y="278" text-anchor="middle" font-family="'Trebuchet MS',Arial,sans-serif" font-size="28" font-weight="700" fill="url(#g1)" letter-spacing="4">GONEPALLI</text>

  <line x1="200" y1="296" x2="288" y2="296" stroke="rgba(255,255,255,0.1)" stroke-width="1"/>
  <text x="340" y="300" text-anchor="middle" font-family="Arial,sans-serif" font-size="10" fill="#9CA3AF" letter-spacing="3">UI  &amp;  FULL STACK  DEVELOPER</text>
  <line x1="392" y1="296" x2="480" y2="296" stroke="rgba(255,255,255,0.1)" stroke-width="1"/>

  <circle cx="80" cy="170" r="2" fill="#6366F1" opacity="0.5"/>
  <circle cx="96" cy="155" r="1.5" fill="#8B5CF6" opacity="0.4"/>
  <circle cx="70" cy="158" r="1" fill="#EC4899" opacity="0.3"/>
  <circle cx="600" cy="170" r="2" fill="#00F5A0" opacity="0.5"/>
  <circle cx="614" cy="155" r="1.5" fill="#00D9F5" opacity="0.4"/>
  <circle cx="608" cy="185" r="1" fill="#6366F1" opacity="0.3"/>
</svg>
